<svg xmlns="http://www.w3.org/2000/svg" version="1.1" xmlns:xlink="http://www.w3.org/1999/xlink" viewBox="0 0 16.56717790063813 13.184398313269426"><g transform="matrix(0.8417169252123582,0,0,0.8417169252123582,2.354585481458078,9.59785468483085)"><rect width="19.04647591846376" height="19.04647591846376" x="-2.479298017825629" y="-13.09410060695378" fill="#b6c3ff"></rect><g transform="matrix(1,0,0,1,0,0)" clip-path="url(#SvgjsClipPath164823)"><g clip-path="url(#SvgjsClipPath1648187e233ffe-4991-4ce6-b8c8-e840b82c343a)"><path d=" M 4.968257786547735 -1.882406256563689 L 3.0094085128030916 -0.37506384506897383 L 6.95222688487517 -0.37506384506897383 L 4.968257786547735 -1.882406256563689 Z" fill="#5b6375" transform="matrix(1,0,0,1,0,0)" fill-rule="nonzero"></path></g><g clip-path="url(#SvgjsClipPath1648187e233ffe-4991-4ce6-b8c8-e840b82c343a)"><path d=" M 0.47861486168554324 -8.805536967150418 L 9.483020535992718 -8.805536967150418 C 9.747352249155746 -8.805536967150418 9.961635397678261 -8.591253818627903 9.961635397678261 -8.326922105464874 L 9.961635397678261 -1.8505954589185087 C 9.961635397678261 -1.5862637457554802 9.747352249155746 -1.371980597232965 9.483020535992718 -1.371980597232965 L 0.47861486168554324 -1.371980597232965 C 0.2142831485225153 -1.371980597232965 0 -1.5862637457554802 0 -1.8505954589185087 L 0 -8.326922105464874 C 0 -8.591253818627903 0.2142831485225153 -8.805536967150418 0.47861486168554324 -8.805536967150418 Z" fill="#ec8457" transform="matrix(1,0,0,1,0,0)" fill-rule="nonzero"></path></g><g clip-path="url(#SvgjsClipPath1648187e233ffe-4991-4ce6-b8c8-e840b82c343a)"><path d=" M 0 -3.10700726350779 L 9.961635397678261 -3.10700726350779 L 9.961635397678261 -3.10700726350779 L 9.961635397678261 -1.8362194253673207 C 9.961614282779655 -1.579821215665559 9.753756545982352 -1.371980596363274 9.497358335411642 -1.371980597232965 L 0.46427706226614085 -1.371980597232965 C 0.20787885169543088 -1.3719805963635379 0.00002111489834238175 -1.579821215666037 -6.791746149494484e-17 -1.8362194253673207 L -6.791746149494484e-17 -3.10700726350779 L 0 -3.10700726350779 Z" fill="#73bcc4" transform="matrix(1,0,0,1,0,0)" fill-rule="nonzero"></path></g><g clip-path="url(#SvgjsClipPath1648187e233ffe-4991-4ce6-b8c8-e840b82c343a)"><path d=" M 7.884260315399893 -8.789593334196043 L 7.10485753896118 -8.004111330803504 Z" fill="#ffffff" transform="matrix(1,0,0,1,0,0)" fill-rule="nonzero"></path></g><g clip-path="url(#SvgjsClipPath1648187e233ffe-4991-4ce6-b8c8-e840b82c343a)"><path d=" M 7.10485753896118 -7.870330103687542 C 7.06953476420785 -7.870274656163419 7.035635335718042 -7.884246996668772 7.010610404110976 -7.90917598158119 C 6.95815792130724 -7.961221092901303 6.9578155965615816 -8.045929351214586 7.009845721475274 -8.098396699785507 L 7.789248497913985 -8.88387870317805 C 7.814248438816395 -8.909074244453354 7.848233935399345 -8.923305738526773 7.8837275092472785 -8.923441976487013 C 7.919221083095212 -8.923578214447224 7.953314828527416 -8.909608034636086 7.978507450250096 -8.884605151681944 C 8.030949315388956 -8.83254945984936 8.031274523710321 -8.747841250246937 7.979233898754013 -8.695384433477626 L 7.199831122315301 -7.909902430085099 C 7.174733587060148 -7.884549840923021 7.140531606386107 -7.870299015642157 7.10485753896118 -7.870330103687542 Z" fill="#5b6375" transform="matrix(1,0,0,1,0,0)" fill-rule="nonzero"></path></g><g clip-path="url(#SvgjsClipPath1648187e233ffe-4991-4ce6-b8c8-e840b82c343a)"><path d=" M 8.942351678420001 -8.789593334196043 L 7.558237873668576 -7.394697504281226 Z" fill="#ffffff" transform="matrix(1,0,0,1,0,0)" fill-rule="nonzero"></path></g><g clip-path="url(#SvgjsClipPath1648187e233ffe-4991-4ce6-b8c8-e840b82c343a)"><path d=" M 7.5584290443275 -7.260878043033484 C 7.523115875643076 -7.260833391433578 7.489224907712467 -7.274788495875599 7.464181909477295 -7.299685686795323 C 7.438986368201972 -7.324685627697736 7.424754874128553 -7.358671124280688 7.424618636168328 -7.394164698128626 C 7.424482398208104 -7.42965827197655 7.438452578019242 -7.46375201740876 7.463455460973379 -7.488944639131436 L 8.847531031593022 -8.883878703178036 C 8.87253097249543 -8.909074244453354 8.90651646907838 -8.923305738526773 8.942010042926313 -8.923441976487013 C 8.977503616774246 -8.923578214447224 9.01159736220645 -8.909608034636086 9.036789983929133 -8.884605151681944 C 9.089231849067989 -8.83254945984936 9.089557057389356 -8.747841250246937 9.037516432433048 -8.695384433477626 L 7.653440861813407 -7.3004503694310126 C 7.628338876217215 -7.275081112296425 7.594118067879787 -7.260828180051261 7.5584290443275 -7.2608780430334985 Z" fill="#5b6375" transform="matrix(1,0,0,1,0,0)" fill-rule="nonzero"></path></g><g clip-path="url(#SvgjsClipPath1648187e233ffe-4991-4ce6-b8c8-e840b82c343a)"><path d=" M 1.5788020038010173 -4.390144726214838 L 0.3294635135919737 -3.131018298268817 Z" fill="#ffffff" transform="matrix(1,0,0,1,0,0)" fill-rule="nonzero"></path></g><g clip-path="url(#SvgjsClipPath1648187e233ffe-4991-4ce6-b8c8-e840b82c343a)"><path d=" M 0.32946351359197246 -2.997237071152849 C 0.2941407388386427 -2.9971816236287117 0.26024131034883646 -3.0111539641340643 0.23521637874176776 -3.0360829490464685 C 0.1827745136029085 -3.0881386408790803 0.18244930528154252 -3.1728468504814895 0.23448993023785064 -3.2253036672508006 L 1.483828420446894 -4.484430095196832 C 1.508823276842979 -4.509630732471303 1.5428059298910533 -4.523869121278476 1.57829951240009 -4.524012529692665 C 1.613793094909126 -4.524155938106841 1.6478896942599395 -4.510192616986112 1.673087372783005 -4.48519477783255 C 1.7255292379218632 -4.433139085999953 1.7258544462432301 -4.348430876397529 1.6738138212869211 -4.295974059628218 L 0.42443709694609244 -3.036809397550405 C 0.3993395616909407 -3.0114568083883277 0.36513758101689914 -2.997205983107464 0.32946351359197246 -2.997237071152849 Z" fill="#5b6375" transform="matrix(1,0,0,1,0,0)" fill-rule="nonzero"></path></g><g clip-path="url(#SvgjsClipPath1648187e233ffe-4991-4ce6-b8c8-e840b82c343a)"><path d=" M 5.600841496931766 -6.629479590734785 L 5.600841496931766 -6.661672729697818 L 5.229243970112641 -6.662016836883888 C 5.215851138403565 -6.728994752110346 5.1977989823742945 -6.794956027113262 5.175219141900334 -6.859419659290201 L 5.493747693801776 -7.041872936168588 L 5.48992428062327 -7.048143333781338 L 5.490727197390756 -7.0486403774945465 L 5.354307815181617 -7.285042014321645 L 5.2189972227942425 -7.5217877583348285 L 5.217926667104261 -7.52129071462162 L 5.214409126980034 -7.527561112234385 L 4.895154126574675 -7.343540235952824 C 4.850682585785655 -7.395027777169286 4.802630181536974 -7.443310158359322 4.751355556931019 -7.488027019968609 L 4.936944032615759 -7.806249698815768 L 4.930826571530147 -7.810073111994271 L 4.931361849375139 -7.810914262893536 L 4.695151383206959 -7.947410113366258 L 4.459437960751983 -8.085052987792523 L 4.458902682906992 -8.083982432102543 L 4.452823455953166 -8.087805845281046 L 4.268649643144469 -7.769047888588897 C 4.204913345458753 -7.791185450892457 4.139112404656641 -7.77463007182952 4.071590927924204 -7.7876679107682305 L 4.073158527327391 -8.121031305802276 L 3.793246448528872 -8.121031305802276 L 3.5362748488013964 -8.192605600503931 L 3.5362748488013964 -8.19314087834892 L 3.5362748488013964 -8.19314087834892 L 3.5362748488013964 -7.823378589855489 C 3.465380133251141 -7.811684250551496 3.395570285001579 -7.7941646513388365 3.3275547233866805 -7.770997829309951 L 3.138869283027348 -8.090405766242446 L 2.656392774031513 -7.815731763498469 L 2.8379284317470392 -7.496094421775261 C 2.7846777875392217 -7.450406266064595 2.7347097014722195 -7.401025889524335 2.6883947423356225 -7.348319502425949 L 2.369636785643466 -7.533525636792845 L 2.0916364134342014 -7.055866628401933 L 2.4095532192270817 -6.870813430562175 C 2.3863721374585305 -6.804675027510162 2.367984926438386 -6.736952846546451 2.354534303588364 -6.668172532101282 L 1.9864925510252502 -6.66920485365948 L 1.9849249516220626 -6.1164922445744665 L 2.3530814065805297 -6.115459923016269 C 2.365963517817485 -6.0466991327943305 2.3838537647810734 -5.9789717692893305 2.4066091910796326 -5.912819024555375 L 2.0873541906742727 -5.72929519198701 L 2.362410534736087 -5.250068584192911 L 2.6820096423275124 -5.433363011970535 C 2.7276378316498464 -5.380330515837008 2.7770237171830745 -5.33065074275728 2.829784561676819 -5.284708707590177 L 2.6449225344959917 -4.966141921556961 L 3.1228491818094035 -4.68867682719268 L 3.307520038331306 -5.006861271908058 C 3.373667783346433 -4.983807997770173 3.441389926067333 -4.965548574761074 3.510160936792191 -4.952224697587191 L 3.5094727224200617 -4.584221179155866 L 4.062185331505076 -4.582997686938734 L 4.062873545877208 -4.951154141897198 C 4.131618184951362 -4.964225170214145 4.1993383946569365 -4.982202969281278 4.265514444338098 -5.0049495653188 L 4.449038276906443 -4.686038672099514 L 4.928264884700548 -4.961630294006317 L 4.744741052132198 -5.280885294411673 C 4.797688846716432 -5.326664192166696 4.847302546967023 -5.376162898005173 4.8932041858536355 -5.429004320947042 L 5.21196214254579 -5.244333464425136 L 5.488930193196858 -5.722680687188189 L 5.170516343690771 -5.90704567065582 C 5.194372410658885 -5.971302014783751 5.213702377777472 -6.037149107003973 5.228364585081587 -6.1041043858760755 L 5.600726794536412 -6.1021926792868175 L 5.600726794536412 -6.056311721144743 L 5.5930799681793975 -6.056311721144743 L 5.593462309497248 -6.343067709532779 L 5.594647567582585 -6.629823697920829 Z M 3.7898436108000007 -5.810619190293876 C 3.471252218812217 -5.810640303743169 3.2129881438761045 -6.068904378679283 3.21296703042682 -6.387495770667064 C 3.213051479107138 -6.706036181474014 3.4713031887990393 -6.964219425707293 3.7898436108000695 -6.9642194145131 C 4.1083505382763335 -6.964198301064515 4.3665461411974595 -6.706002698143394 4.366567254646041 -6.387495770667064 C 4.366587536634793 -6.234518869182022 4.30583714973428 -6.087799446470748 4.197680485910599 -5.979614101484687 C 4.089523822086918 -5.871428756498626 3.942820512284734 -5.810639469593964 3.789843610799665 -5.81061919029389 Z" fill="#ffffff" transform="matrix(1,0,0,1,0,0)" fill-rule="nonzero"></path></g><g clip-path="url(#SvgjsClipPath1648187e233ffe-4991-4ce6-b8c8-e840b82c343a)"><path d=" M 7.912400636393706 -5.260697672829167 L 7.693739636714874 -5.260965311751662 C 7.690316913080981 -5.306116677727137 7.683737301434297 -5.350973020429084 7.67404905884556 -5.395205348449056 L 7.89917162679607 -5.519275106091607 L 7.900739226199258 -5.523519094719756 L 7.903453849555999 -5.5238632019058125 L 7.811691933271824 -5.68444655540312 L 7.720197655910145 -5.845450484350046 L 7.719738846328723 -5.845106377163976 L 7.717483032553404 -5.849350365792125 L 7.500466100541329 -5.724248286591362 C 7.470227514392352 -5.759247064284176 7.437558242967751 -5.792069652586793 7.402701425566896 -5.822471771147235 L 7.528874060457639 -6.038876957050718 L 7.5247447742248506 -6.0413621756167615 L 7.525088881410916 -6.041973921725313 L 7.36450552791361 -6.134768159567701 L 7.204228047470584 -6.228288845913983 L 7.203883940284518 -6.227600631541856 L 7.1997164199199455 -6.230085850107884 L 7.059703029323008 -5.986190323450904 C 7.020818739652048 -5.999166187972177 6.98095157929141 -6.0089859375414365 6.940489006417152 -6.015554136661837 L 6.944809463308864 -6.301698378941321 L 6.556694791558589 -6.301354271755264 L 6.556694791558589 -6.301698378941321 L 6.556694791558589 -6.301698378941321 L 6.556694791558589 -6.050270728322678 C 6.4419923962033705 -6.0414768780121175 6.468068074080789 -6.029547828895183 6.424634100372947 -6.01463651749901 L 6.301252557102517 -6.231844620170005 L 5.97561245668905 -6.045032652268141 L 6.1002939604401725 -5.827709847201774 C 6.064275208130847 -5.796622836417589 6.030494345686275 -5.763033620318189 5.999202916000441 -5.727192314738819 L 5.782721261833356 -5.853135544838846 L 5.593844650815096 -5.528145424665729 L 5.810135134323254 -5.402316896961043 C 5.79437850659646 -5.357394393698407 5.781881772751478 -5.311394146416255 5.772742153437453 -5.264674022534808 L 5.522461526772365 -5.265362236906921 L 5.521429205214168 -4.889520721459657 L 5.771786300142826 -4.888794272955749 C 5.780551621850313 -4.841993013859507 5.792742876918193 -4.795898824100767 5.808261661865786 -4.750883759606991 L 5.591130027458356 -4.626202255855874 L 5.778171400150932 -4.300294516519916 L 5.9955324393490725 -4.424976020271031 C 6.026549919652836 -4.388892908204036 6.060143911935803 -4.355107242324939 6.096049971812026 -4.323884975831306 L 5.970336146502709 -4.1072121510053 L 6.295326266675829 -3.9185267106459722 L 6.420925389589794 -4.134931896549483 C 6.465851831538671 -4.119246540576026 6.511852450280896 -4.106826373515642 6.558568264016057 -4.097768320454365 L 6.558109454434636 -3.847487693789306 L 6.933950969881902 -3.846646542890027 L 6.934448013595109 -4.097041871950471 C 6.981239736611434 -4.105899831435957 7.0273299963054106 -4.118128381069212 7.072358526943868 -4.133631936068776 L 7.197116498958559 -3.9167297064520703 L 7.523062472426306 -4.104076952198939 L 7.398151563884473 -4.321170352474577 C 7.434154781934839 -4.352317866536226 7.467898585006417 -4.385985008184681 7.499127905928851 -4.421917289728246 L 7.715877199018428 -4.296318166814289 L 7.904256766323483 -4.621652394173478 L 7.678675388791553 -4.748016199723138 C 7.687354536706764 -4.794967713555206 7.684142869636818 -4.8350753177977515 7.693127890606311 -4.881032744203401 L 7.912324168130134 -4.8797327837226945 L 7.975181080784794 -4.882332704684094 L 7.975410485575504 -4.956545154478916 L 7.976748680187981 -5.260812375224525 Z M 6.748936006173936 -4.681947619998516 C 6.532272163268559 -4.68196873218798 6.356636692116774 -4.8576042033397675 6.356615579927301 -5.07426804624514 C 6.356700014318071 -5.29088709372415 6.532316943266365 -5.466452677697557 6.748936006173983 -5.466473770096408 C 6.965536500695887 -5.466452657908104 7.14112061783689 -5.290868540767102 7.141141730025214 -5.07426804624514 C 7.141078407579935 -4.8576912267304335 6.965512830832249 -4.682142764973878 6.748936006173698 -4.682100556525668 Z" fill="#ffce67" transform="matrix(1,0,0,1,0,0)" fill-rule="nonzero"></path></g><g clip-path="url(#SvgjsClipPath1648187e233ffe-4991-4ce6-b8c8-e840b82c343a)"><path d=" M 1.9024921634934446 -0.50008945600616 L 8.059105000053032 -0.50008945600616 C 8.117976770008179 -0.50008945600616 8.165701759469815 -0.4523644665445232 8.165701759469815 -0.3934926965893766 L 8.165701759469815 -0.3565967594167816 C 8.165701759469815 -0.2977249894616385 8.117976770008179 -0.24999999999999822 8.059105000053032 -0.24999999999999822 L 1.9024921634934446 -0.24999999999999822 C 1.8436203935382982 -0.24999999999999822 1.7958954040766613 -0.2977249894616385 1.7958954040766613 -0.3565967594167816 L 1.7958954040766613 -0.3934926965893766 C 1.7958954040766613 -0.4523644665445232 1.8436203935382982 -0.50008945600616 1.9024921634934446 -0.50008945600616 Z" fill="#ffce67" transform="matrix(1,0,0,1,0,0)" fill-rule="nonzero"></path></g></g><g><path d=" M 0.40650000000000003 1.0199999999999998 Q 0.3075 1.0199999999999998 0.23175 0.9997499999999999 Q 0.156 0.9794999999999999 0.0855 0.9434999999999999 L 0.07050000000000001 0.69 L 0.0975 0.69 L 0.20400000000000001 0.8744999999999998 Q 0.2445 0.9074999999999999 0.29175 0.9254999999999999 Q 0.339 0.9434999999999999 0.3885 0.9434999999999999 Q 0.46950000000000003 0.9434999999999999 0.5205 0.9052499999999999 Q 0.5715 0.8669999999999999 0.5715 0.7919999999999999 Q 0.5715 0.7409999999999999 0.54825 0.708 Q 0.525 0.6749999999999998 0.47100000000000003 0.6457499999999998 Q 0.417 0.6164999999999998 0.3225 0.5744999999999999 Q 0.216 0.5279999999999998 0.159 0.4634999999999999 Q 0.10200000000000001 0.3989999999999999 0.10200000000000001 0.3029999999999998 Q 0.10200000000000001 0.24299999999999988 0.13275 0.18824999999999992 Q 0.1635 0.13349999999999984 0.21525 0.09074999999999989 Q 0.267 0.04799999999999982 0.33075 0.02399999999999991 Q 0.3945 -2.220446049250313e-16 0.462 -2.220446049250313e-16 Q 0.5385 -2.220446049250313e-16 0.609 0.017999999999999905 Q 0.6795 0.03599999999999992 0.7395 0.06899999999999984 L 0.7545000000000001 0.30899999999999983 L 0.729 0.30899999999999983 L 0.624 0.13949999999999985 Q 0.585 0.10949999999999982 0.54825 0.09374999999999989 Q 0.5115000000000001 0.07799999999999985 0.465 0.07799999999999985 Q 0.4035 0.07799999999999985 0.363 0.11699999999999988 Q 0.3225 0.15599999999999992 0.3225 0.22049999999999992 Q 0.3225 0.2819999999999999 0.36675 0.32174999999999987 Q 0.41100000000000003 0.36149999999999993 0.5205 0.4109999999999999 Q 0.657 0.47399999999999987 0.7215 0.5399999999999998 Q 0.786 0.6059999999999999 0.786 0.714 Q 0.786 0.8099999999999998 0.7305 0.8789999999999999 Q 0.675 0.9479999999999998 0.588 0.9839999999999999 Q 0.501 1.0199999999999998 0.40650000000000003 1.0199999999999998 M 0.874517578125 1.005 L 0.874517578125 0.9809999999999999 L 0.966017578125 0.9299999999999999 L 1.357517578125 0.00749999999999984 L 1.489517578125 0.00749999999999984 L 1.876517578125 0.9269999999999999 L 1.978517578125 0.9809999999999999 L 1.978517578125 1.005 L 1.504517578125 1.005 L 1.504517578125 0.9809999999999999 L 1.635017578125 0.9269999999999999 L 1.533017578125 0.6779999999999999 L 1.177517578125 0.6779999999999999 L 1.075517578125 0.9269999999999999 L 1.200017578125 0.9809999999999999 L 1.200017578125 1.005 L 0.874517578125 1.005 M 1.212017578125 0.5954999999999999 L 1.498517578125 0.5954999999999999 L 1.356017578125 0.24599999999999989 L 1.212017578125 0.5954999999999999 M 2.075997802734375 1.005 L 2.075997802734375 0.9809999999999999 L 2.2034978027343755 0.9194999999999999 L 2.2034978027343755 0.10049999999999992 L 2.075997802734375 0.038999999999999924 L 2.075997802734375 0.014999999999999902 L 2.5724978027343752 0.014999999999999902 L 2.5724978027343752 0.038999999999999924 L 2.429997802734375 0.10049999999999992 L 2.429997802734375 0.9224999999999999 L 2.7599978027343752 0.9224999999999999 L 2.8814978027343754 0.6389999999999999 L 2.9054978027343754 0.6389999999999999 L 2.9054978027343754 1.005 L 2.075997802734375 1.005 M 3.0494780273437505 1.005 L 3.0494780273437505 0.9809999999999999 L 3.1769780273437505 0.9194999999999999 L 3.2084780273437503 0.10049999999999992 L 3.07647802734375 0.038999999999999924 L 3.07647802734375 0.014999999999999902 L 3.4484780273437505 0.014999999999999902 L 3.7499780273437504 0.7124999999999999 L 4.048478027343751 0.014999999999999902 L 4.40847802734375 0.014999999999999902 L 4.40847802734375 0.038999999999999924 L 4.27797802734375 0.08549999999999991 L 4.3034780273437505 0.9194999999999999 L 4.41747802734375 0.9809999999999999 L 4.41747802734375 1.005 L 3.9629780273437505 1.005 L 3.9629780273437505 0.9809999999999999 L 4.08297802734375 0.9209999999999999 L 4.0679780273437505 0.2084999999999999 L 3.7259780273437504 1.0125 L 3.6419780273437503 1.0125 L 3.2969780273437506 0.2114999999999999 L 3.2774780273437503 0.9209999999999999 L 3.4079780273437503 0.9809999999999999 L 3.4079780273437503 1.005 L 3.0494780273437505 1.005 M 4.510470703125001 1.005 L 4.510470703125001 0.9809999999999999 L 4.601970703125001 0.9299999999999999 L 4.993470703125 0.00749999999999984 L 5.125470703125 0.00749999999999984 L 5.512470703125 0.9269999999999999 L 5.614470703125001 0.9809999999999999 L 5.614470703125001 1.005 L 5.1404707031250005 1.005 L 5.1404707031250005 0.9809999999999999 L 5.270970703125 0.9269999999999999 L 5.168970703125001 0.6779999999999999 L 4.813470703125001 0.6779999999999999 L 4.711470703125 0.9269999999999999 L 4.8359707031250005 0.9809999999999999 L 4.8359707031250005 1.005 L 4.510470703125001 1.005 M 4.847970703125 0.5954999999999999 L 5.134470703125 0.5954999999999999 L 4.991970703125 0.24599999999999989 L 4.847970703125 0.5954999999999999 M 5.708950927734375 1.005 L 5.708950927734375 0.9809999999999999 L 5.836450927734376 0.9194999999999999 L 5.836450927734376 0.10199999999999987 L 5.708950927734375 0.038999999999999924 L 5.708950927734375 0.014999999999999902 L 5.993950927734375 0.014999999999999902 L 6.575950927734375 0.6719999999999999 L 6.575950927734375 0.09899999999999987 L 6.404950927734376 0.038999999999999924 L 6.404950927734376 0.014999999999999902 L 6.806950927734375 0.014999999999999902 L 6.806950927734375 0.038999999999999924 L 6.680950927734376 0.10049999999999992 L 6.680950927734376 1.0125 L 6.587950927734376 1.0125 L 5.941450927734375 0.28949999999999987 L 5.941450927734375 0.9194999999999999 L 6.1124509277343755 0.9809999999999999 L 6.1124509277343755 1.005 L 5.708950927734375 1.005 M 7.784919433593751 1.0125 L 7.385919433593751 0.09749999999999992 L 7.279419433593751 0.038999999999999924 L 7.279419433593751 0.014999999999999902 L 7.747419433593751 0.014999999999999902 L 7.747419433593751 0.038999999999999924 L 7.624419433593751 0.09749999999999992 L 7.891419433593751 0.7109999999999999 L 7.903419433593751 0.7109999999999999 L 8.16741943359375 0.09599999999999986 L 8.04591943359375 0.038999999999999924 L 8.04591943359375 0.014999999999999902 L 8.36691943359375 0.014999999999999902 L 8.36691943359375 0.038999999999999924 L 8.27991943359375 0.08699999999999986 L 7.871919433593751 1.0125 L 7.784919433593751 1.0125 M 8.2904150390625 1.005 L 8.2904150390625 0.9809999999999999 L 8.3819150390625 0.9299999999999999 L 8.7734150390625 0.00749999999999984 L 8.9054150390625 0.00749999999999984 L 9.2924150390625 0.9269999999999999 L 9.394415039062501 0.9809999999999999 L 9.394415039062501 1.005 L 8.920415039062501 1.005 L 8.920415039062501 0.9809999999999999 L 9.0509150390625 0.9269999999999999 L 8.9489150390625 0.6779999999999999 L 8.593415039062501 0.6779999999999999 L 8.4914150390625 0.9269999999999999 L 8.6159150390625 0.9809999999999999 L 8.6159150390625 1.005 L 8.2904150390625 1.005 M 8.6279150390625 0.5954999999999999 L 8.9144150390625 0.5954999999999999 L 8.7719150390625 0.24599999999999989 L 8.6279150390625 0.5954999999999999 M 9.491895263671877 1.005 L 9.491895263671877 0.9809999999999999 L 9.619395263671876 0.9194999999999999 L 9.619395263671876 0.10049999999999992 L 9.491895263671877 0.038999999999999924 L 9.491895263671877 0.014999999999999902 L 9.962895263671877 0.014999999999999902 L 9.962895263671877 0.038999999999999924 L 9.845895263671876 0.10049999999999992 L 9.845895263671876 0.4544999999999999 L 10.261395263671876 0.4544999999999999 L 10.261395263671876 0.10049999999999992 L 10.141395263671876 0.038999999999999924 L 10.141395263671876 0.014999999999999902 L 10.613895263671877 0.014999999999999902 L 10.613895263671877 0.038999999999999924 L 10.487895263671875 0.10049999999999992 L 10.487895263671875 0.9194999999999999 L 10.613895263671877 0.9809999999999999 L 10.613895263671877 1.005 L 10.141395263671876 1.005 L 10.141395263671876 0.9809999999999999 L 10.261395263671876 0.9194999999999999 L 10.261395263671876 0.5369999999999999 L 9.845895263671876 0.5369999999999999 L 9.845895263671876 0.9194999999999999 L 9.962895263671877 0.9809999999999999 L 9.962895263671877 1.005 L 9.491895263671877 1.005 M 11.27389306640625 1.0199999999999998 Q 11.162893066406252 1.0199999999999998 11.068393066406252 0.9817499999999999 Q 10.973893066406252 0.9434999999999999 10.90414306640625 0.8752499999999999 Q 10.834393066406252 0.8069999999999999 10.795393066406252 0.714 Q 10.75639306640625 0.6209999999999999 10.75639306640625 0.5099999999999999 Q 10.75639306640625 0.3989999999999999 10.795393066406252 0.3059999999999998 Q 10.834393066406252 0.21299999999999986 10.90414306640625 0.14474999999999982 Q 10.973893066406252 0.0764999999999999 11.068393066406252 0.038249999999999895 Q 11.162893066406252 -2.220446049250313e-16 11.27389306640625 -2.220446049250313e-16 Q 11.386393066406251 -2.220446049250313e-16 11.480893066406251 0.038249999999999895 Q 11.575393066406251 0.0764999999999999 11.645143066406252 0.14474999999999982 Q 11.714893066406251 0.21299999999999986 11.75389306640625 0.3059999999999998 Q 11.79289306640625 0.3989999999999999 11.79289306640625 0.5099999999999999 Q 11.79289306640625 0.6209999999999999 11.75389306640625 0.714 Q 11.714893066406251 0.8069999999999999 11.645143066406252 0.8752499999999999 Q 11.575393066406251 0.9434999999999999 11.480893066406251 0.9817499999999999 Q 11.386393066406251 1.0199999999999998 11.27389306640625 1.0199999999999998 M 11.297893066406251 0.942 Q 11.37289306640625 0.942 11.430643066406251 0.8939999999999999 Q 11.488393066406251 0.8459999999999999 11.520643066406251 0.7589999999999999 Q 11.55289306640625 0.6719999999999999 11.55289306640625 0.5549999999999999 Q 11.55289306640625 0.4109999999999999 11.51314306640625 0.3029999999999998 Q 11.473393066406251 0.19499999999999984 11.405893066406252 0.13574999999999993 Q 11.338393066406251 0.0764999999999999 11.254393066406251 0.0764999999999999 Q 11.17939306640625 0.0764999999999999 11.120893066406252 0.12374999999999992 Q 11.062393066406251 0.17099999999999993 11.028643066406252 0.2579999999999999 Q 10.99489306640625 0.34499999999999986 10.99489306640625 0.46199999999999986 Q 10.99489306640625 0.6059999999999999 11.03539306640625 0.714 Q 11.075893066406252 0.8219999999999998 11.14489306640625 0.8819999999999999 Q 11.213893066406252 0.942 11.297893066406251 0.942 M 11.935395263671877 1.005 L 11.935395263671877 0.9809999999999999 L 12.062895263671876 0.9194999999999999 L 12.062895263671876 0.10049999999999992 L 11.935395263671877 0.038999999999999924 L 11.935395263671877 0.014999999999999902 L 12.448395263671877 0.014999999999999902 Q 12.605895263671876 0.014999999999999902 12.696645263671876 0.08024999999999982 Q 12.787395263671876 0.14549999999999985 12.787395263671876 0.25949999999999984 Q 12.787395263671876 0.34199999999999986 12.731895263671877 0.4012499999999999 Q 12.676395263671877 0.4604999999999999 12.586395263671877 0.4949999999999999 L 12.863895263671877 0.9209999999999999 L 12.971895263671875 0.9809999999999999 L 12.971895263671875 1.005 L 12.646395263671875 1.005 L 12.368895263671876 0.5459999999999998 L 12.289395263671876 0.5459999999999998 L 12.289395263671876 0.9179999999999999 L 12.401895263671877 0.9809999999999999 L 12.401895263671877 1.005 L 11.935395263671877 1.005 M 12.349395263671877 0.09749999999999992 L 12.289395263671876 0.09749999999999992 L 12.289395263671876 0.4724999999999999 L 12.358395263671877 0.4724999999999999 Q 12.451395263671877 0.4724999999999999 12.505395263671875 0.41999999999999993 Q 12.559395263671876 0.3674999999999998 12.559395263671876 0.28349999999999986 Q 12.559395263671876 0.19499999999999984 12.506145263671876 0.14624999999999988 Q 12.452895263671877 0.09749999999999992 12.349395263671877 0.09749999999999992 M 12.955399658203126 1.005 L 12.955399658203126 0.9809999999999999 L 13.046899658203126 0.9299999999999999 L 13.438399658203126 0.00749999999999984 L 13.570399658203126 0.00749999999999984 L 13.957399658203126 0.9269999999999999 L 14.059399658203127 0.9809999999999999 L 14.059399658203127 1.005 L 13.585399658203126 1.005 L 13.585399658203126 0.9809999999999999 L 13.715899658203126 0.9269999999999999 L 13.613899658203126 0.6779999999999999 L 13.258399658203126 0.6779999999999999 L 13.156399658203126 0.9269999999999999 L 13.280899658203126 0.9809999999999999 L 13.280899658203126 1.005 L 12.955399658203126 1.005 M 13.292899658203126 0.5954999999999999 L 13.579399658203126 0.5954999999999999 L 13.436899658203126 0.24599999999999989 L 13.292899658203126 0.5954999999999999" fill="#401b00" fill-rule="nonzero"></path></g><g><path d=" M 0.25 1.7816874999999996 Q 0.18625 1.7816874999999996 0.14 1.7554374999999995 Q 0.09375 1.7291874999999997 0.06875 1.6838749999999996 Q 0.043750000000000004 1.6385624999999995 0.043750000000000004 1.5804374999999995 Q 0.043750000000000004 1.5360624999999994 0.0609375 1.4957499999999995 Q 0.078125 1.4554374999999995 0.1078125 1.4241874999999995 Q 0.1375 1.3929374999999995 0.1765625 1.3748124999999995 Q 0.215625 1.3566874999999996 0.259375 1.3566874999999996 Q 0.290625 1.3566874999999996 0.3125 1.3607499999999995 Q 0.33437500000000003 1.3648124999999995 0.3515625 1.3713749999999996 Q 0.36875 1.3779374999999996 0.38625 1.3866874999999996 L 0.389375 1.4960624999999996 L 0.378125 1.4960624999999996 L 0.34 1.4198124999999995 Q 0.31625000000000003 1.4029374999999995 0.2984375 1.3954374999999994 Q 0.280625 1.3879374999999996 0.258125 1.3879374999999996 Q 0.213125 1.3879374999999996 0.1778125 1.4104374999999996 Q 0.14250000000000002 1.4329374999999995 0.1221875 1.4719999999999995 Q 0.10187500000000001 1.5110624999999995 0.10187500000000001 1.5616874999999997 Q 0.10187500000000001 1.6210624999999996 0.1215625 1.6632499999999997 Q 0.14125000000000001 1.7054374999999995 0.1746875 1.7276249999999995 Q 0.208125 1.7498124999999995 0.24875 1.7498124999999995 Q 0.283125 1.7498124999999995 0.3065625 1.7401249999999995 Q 0.33 1.7304374999999996 0.348125 1.7185624999999995 L 0.385625 1.6516874999999995 L 0.39625 1.6516874999999995 L 0.389375 1.7510624999999995 Q 0.37125 1.7604374999999997 0.3521875 1.7673124999999996 Q 0.333125 1.7741874999999996 0.30875 1.7779374999999995 Q 0.284375 1.7816874999999996 0.25 1.7816874999999996 M 0.6943710327148438 1.7816874999999996 Q 0.6474960327148438 1.7816874999999996 0.6109335327148437 1.7641874999999996 Q 0.5743710327148437 1.7466874999999995 0.5531210327148437 1.7101249999999997 Q 0.5318710327148437 1.6735624999999996 0.5318710327148437 1.6154374999999996 L 0.5318710327148437 1.3979374999999996 L 0.48187103271484377 1.3729374999999995 L 0.48187103271484377 1.3629374999999995 L 0.6381210327148438 1.3629374999999995 L 0.6381210327148438 1.3729374999999995 L 0.5881210327148437 1.3979374999999996 L 0.5881210327148437 1.6060624999999995 Q 0.5881210327148437 1.6579374999999996 0.6043710327148437 1.6885624999999995 Q 0.6206210327148438 1.7191874999999996 0.6484335327148437 1.7323124999999995 Q 0.6762460327148437 1.7454374999999995 0.7106210327148438 1.7454374999999995 Q 0.7381210327148438 1.7454374999999995 0.7615585327148438 1.7335624999999995 Q 0.7849960327148438 1.7216874999999996 0.7990585327148438 1.6960624999999996 Q 0.8131210327148437 1.6704374999999996 0.8131210327148437 1.6279374999999996 L 0.8131210327148437 1.3966874999999996 L 0.7506210327148437 1.3729374999999995 L 0.7506210327148437 1.3629374999999995 L 0.9062460327148438 1.3629374999999995 L 0.9062460327148438 1.3729374999999995 L 0.8568710327148438 1.3973124999999995 L 0.8568710327148438 1.6154374999999996 Q 0.8568710327148438 1.6735624999999996 0.8356210327148438 1.7101249999999997 Q 0.8143710327148437 1.7466874999999995 0.7778085327148437 1.7641874999999996 Q 0.7412460327148438 1.7816874999999996 0.6943710327148438 1.7816874999999996 M 0.9875091552734374 1.7754374999999996 L 0.9875091552734374 1.7654374999999995 L 1.0375091552734375 1.7404374999999996 L 1.0375091552734375 1.3979374999999996 L 0.9875091552734374 1.3729374999999995 L 0.9875091552734374 1.3629374999999995 L 1.1487591552734373 1.3629374999999995 Q 1.2143841552734373 1.3629374999999995 1.2521966552734374 1.3901249999999996 Q 1.2900091552734374 1.4173124999999995 1.2900091552734374 1.4648124999999996 Q 1.2900091552734374 1.4998124999999995 1.2662591552734375 1.5276249999999996 Q 1.2425091552734373 1.5554374999999996 1.2031341552734374 1.5698124999999996 L 1.3218841552734375 1.7429374999999996 L 1.3631341552734373 1.7654374999999995 L 1.3631341552734373 1.7754374999999996 L 1.2731341552734374 1.7754374999999996 L 1.1518841552734373 1.5860624999999995 L 1.0937591552734374 1.5860624999999995 L 1.0937591552734374 1.7398124999999995 L 1.1406341552734374 1.7654374999999995 L 1.1406341552734374 1.7754374999999996 L 0.9875091552734374 1.7754374999999996 M 1.1343841552734375 1.3973124999999995 L 1.0937591552734374 1.3973124999999995 L 1.0937591552734374 1.5516874999999994 L 1.1381341552734374 1.5516874999999994 Q 1.1775091552734374 1.5516874999999994 1.2034466552734373 1.5294999999999996 Q 1.2293841552734375 1.5073124999999996 1.2293841552734375 1.4729374999999996 Q 1.2293841552734375 1.4379374999999994 1.2037591552734375 1.4176249999999995 Q 1.1781341552734375 1.3973124999999995 1.1343841552734375 1.3973124999999995 M 1.403765869140625 1.7754374999999996 L 1.403765869140625 1.7654374999999995 L 1.453765869140625 1.7404374999999996 L 1.453765869140625 1.3979374999999996 L 1.403765869140625 1.3729374999999995 L 1.403765869140625 1.3629374999999995 L 1.560015869140625 1.3629374999999995 L 1.560015869140625 1.3729374999999995 L 1.510015869140625 1.3979374999999996 L 1.510015869140625 1.7404374999999996 L 1.560015869140625 1.7654374999999995 L 1.560015869140625 1.7754374999999996 L 1.403765869140625 1.7754374999999996 M 1.8556500244140626 1.7816874999999996 Q 1.8106500244140624 1.7816874999999996 1.7728375244140624 1.7657499999999995 Q 1.7350250244140626 1.7498124999999995 1.7069000244140624 1.7213749999999997 Q 1.6787750244140625 1.6929374999999995 1.6631500244140625 1.6541874999999995 Q 1.6475250244140625 1.6154374999999996 1.6475250244140625 1.5691874999999995 Q 1.6475250244140625 1.5229374999999996 1.6631500244140625 1.4841874999999995 Q 1.6787750244140625 1.4454374999999995 1.7069000244140624 1.4169999999999996 Q 1.7350250244140626 1.3885624999999995 1.7728375244140624 1.3726249999999995 Q 1.8106500244140624 1.3566874999999996 1.8556500244140626 1.3566874999999996 Q 1.9006500244140625 1.3566874999999996 1.9387750244140625 1.3726249999999995 Q 1.9769000244140624 1.3885624999999995 2.0050250244140626 1.4169999999999996 Q 2.0331500244140623 1.4454374999999995 2.0487750244140623 1.4841874999999995 Q 2.0644000244140623 1.5229374999999996 2.0644000244140623 1.5691874999999995 Q 2.0644000244140623 1.6154374999999996 2.0487750244140623 1.6541874999999995 Q 2.0331500244140623 1.6929374999999995 2.0050250244140626 1.7213749999999997 Q 1.9769000244140624 1.7498124999999995 1.9387750244140625 1.7657499999999995 Q 1.9006500244140625 1.7816874999999996 1.8556500244140626 1.7816874999999996 M 1.8687750244140626 1.7504374999999996 Q 1.9087750244140624 1.7504374999999996 1.9390875244140626 1.7304374999999996 Q 1.9694000244140626 1.7104374999999996 1.9865875244140625 1.6741874999999995 Q 2.0037750244140624 1.6379374999999996 2.0037750244140624 1.5885624999999997 Q 2.0037750244140624 1.5279374999999995 1.9825250244140626 1.4826249999999996 Q 1.9612750244140624 1.4373124999999995 1.9253375244140625 1.4123124999999996 Q 1.8894000244140625 1.3873124999999995 1.8450250244140625 1.3873124999999995 Q 1.8050250244140624 1.3873124999999995 1.7740875244140626 1.4069999999999996 Q 1.7431500244140625 1.4266874999999994 1.7256500244140625 1.4629374999999996 Q 1.7081500244140626 1.4991874999999997 1.7081500244140626 1.5485624999999996 Q 1.7081500244140626 1.6091874999999995 1.7297125244140625 1.6548124999999996 Q 1.7512750244140625 1.7004374999999996 1.7875250244140626 1.7254374999999995 Q 1.8237750244140625 1.7504374999999996 1.8687750244140626 1.7504374999999996 M 2.355023193359375 1.7816874999999996 Q 2.308148193359375 1.7816874999999996 2.271585693359375 1.7641874999999996 Q 2.235023193359375 1.7466874999999995 2.213773193359375 1.7101249999999997 Q 2.192523193359375 1.6735624999999996 2.192523193359375 1.6154374999999996 L 2.192523193359375 1.3979374999999996 L 2.142523193359375 1.3729374999999995 L 2.142523193359375 1.3629374999999995 L 2.298773193359375 1.3629374999999995 L 2.298773193359375 1.3729374999999995 L 2.248773193359375 1.3979374999999996 L 2.248773193359375 1.6060624999999995 Q 2.248773193359375 1.6579374999999996 2.265023193359375 1.6885624999999995 Q 2.281273193359375 1.7191874999999996 2.309085693359375 1.7323124999999995 Q 2.336898193359375 1.7454374999999995 2.371273193359375 1.7454374999999995 Q 2.398773193359375 1.7454374999999995 2.422210693359375 1.7335624999999995 Q 2.445648193359375 1.7216874999999996 2.459710693359375 1.6960624999999996 Q 2.473773193359375 1.6704374999999996 2.473773193359375 1.6279374999999996 L 2.473773193359375 1.3966874999999996 L 2.411273193359375 1.3729374999999995 L 2.411273193359375 1.3629374999999995 L 2.566898193359375 1.3629374999999995 L 2.566898193359375 1.3729374999999995 L 2.517523193359375 1.3973124999999995 L 2.517523193359375 1.6154374999999996 Q 2.517523193359375 1.6735624999999996 2.496273193359375 1.7101249999999997 Q 2.475023193359375 1.7466874999999995 2.438460693359375 1.7641874999999996 Q 2.401898193359375 1.7816874999999996 2.355023193359375 1.7816874999999996 M 2.772536315917969 1.7816874999999996 Q 2.733786315917969 1.7816874999999996 2.706911315917969 1.7744999999999995 Q 2.6800363159179685 1.7673124999999996 2.651286315917969 1.7529374999999996 L 2.645036315917969 1.6504374999999996 L 2.6550363159179686 1.6504374999999996 L 2.6856613159179688 1.7166874999999995 Q 2.7081613159179687 1.7354374999999995 2.729411315917969 1.7438749999999996 Q 2.7506613159179687 1.7523124999999995 2.772536315917969 1.7523124999999995 Q 2.8094113159179686 1.7523124999999995 2.8303488159179686 1.7329374999999996 Q 2.8512863159179687 1.7135624999999997 2.8512863159179687 1.6804374999999996 Q 2.8512863159179687 1.6529374999999995 2.8390988159179686 1.6373124999999995 Q 2.8269113159179686 1.6216874999999995 2.804098815917969 1.6094999999999995 Q 2.781286315917969 1.5973124999999995 2.750036315917969 1.5816874999999995 Q 2.720661315917969 1.5666874999999996 2.7000363159179686 1.5523124999999995 Q 2.6794113159179687 1.5379374999999995 2.6687863159179686 1.5188749999999995 Q 2.658161315917969 1.4998124999999995 2.658161315917969 1.4710624999999995 Q 2.658161315917969 1.4498124999999995 2.668473815917969 1.4294999999999995 Q 2.678786315917969 1.4091874999999996 2.6965988159179686 1.3926249999999996 Q 2.714411315917969 1.3760624999999995 2.7365988159179686 1.3663749999999997 Q 2.758786315917969 1.3566874999999996 2.7825363159179686 1.3566874999999996 Q 2.8112863159179686 1.3566874999999996 2.8356613159179687 1.3635624999999996 Q 2.8600363159179687 1.3704374999999995 2.885661315917969 1.3829374999999995 L 2.8919113159179686 1.4829374999999996 L 2.881911315917969 1.4829374999999996 L 2.8531613159179687 1.4173124999999995 Q 2.8312863159179686 1.4010624999999997 2.8150363159179688 1.3938749999999995 Q 2.798786315917969 1.3866874999999996 2.7775363159179687 1.3866874999999996 Q 2.750036315917969 1.3866874999999996 2.7322238159179686 1.4054374999999997 Q 2.714411315917969 1.4241874999999995 2.714411315917969 1.4516874999999996 Q 2.714411315917969 1.4835624999999997 2.733786315917969 1.5013749999999995 Q 2.7531613159179686 1.5191874999999997 2.794411315917969 1.5391874999999995 Q 2.832536315917969 1.5579374999999995 2.856911315917969 1.5738749999999995 Q 2.881286315917969 1.5898124999999996 2.8931613159179688 1.6104374999999995 Q 2.9050363159179686 1.6310624999999996 2.9050363159179686 1.6629374999999995 Q 2.9050363159179686 1.6923124999999994 2.892536315917969 1.7144999999999995 Q 2.8800363159179687 1.7366874999999995 2.860348815917969 1.7516874999999996 Q 2.8406613159179686 1.7666874999999995 2.8172238159179686 1.7741874999999996 Q 2.7937863159179686 1.7816874999999996 2.772536315917969 1.7816874999999996 M 3.133164978027344 1.7754374999999996 L 3.133164978027344 1.7654374999999995 L 3.182539978027344 1.7404374999999996 L 3.195664978027344 1.3985624999999995 L 3.141914978027344 1.3729374999999995 L 3.141914978027344 1.3629374999999995 L 3.257539978027344 1.3629374999999995 L 3.4019149780273437 1.6954374999999995 L 3.545664978027344 1.3629374999999995 L 3.655664978027344 1.3629374999999995 L 3.655664978027344 1.3729374999999995 L 3.603164978027344 1.3979374999999996 L 3.6137899780273437 1.7404374999999996 L 3.657539978027344 1.7654374999999995 L 3.657539978027344 1.7754374999999996 L 3.5137899780273436 1.7754374999999996 L 3.5137899780273436 1.7654374999999995 L 3.5600399780273437 1.7410624999999995 L 3.5537899780273436 1.4329374999999995 L 3.4044149780273436 1.7785624999999996 L 3.376289978027344 1.7785624999999996 L 3.229414978027344 1.4373124999999995 L 3.2212899780273436 1.7410624999999995 L 3.2719149780273438 1.7654374999999995 L 3.2719149780273438 1.7754374999999996 L 3.133164978027344 1.7754374999999996 M 3.738780212402344 1.7754374999999996 L 3.738780212402344 1.7654374999999995 L 3.7887802124023438 1.7404374999999996 L 3.7887802124023438 1.3979374999999996 L 3.738780212402344 1.3729374999999995 L 3.738780212402344 1.3629374999999995 L 3.895030212402344 1.3629374999999995 L 3.895030212402344 1.3729374999999995 L 3.8450302124023437 1.3979374999999996 L 3.8450302124023437 1.7404374999999996 L 3.895030212402344 1.7654374999999995 L 3.895030212402344 1.7754374999999996 L 3.738780212402344 1.7754374999999996 M 3.9762893676757813 1.7754374999999996 L 3.9762893676757813 1.7654374999999995 L 4.026289367675782 1.7404374999999996 L 4.026289367675782 1.3991874999999996 L 3.976914367675781 1.3729374999999995 L 3.976914367675781 1.3629374999999995 L 4.068789367675781 1.3629374999999995 L 4.307539367675782 1.6629374999999995 L 4.307539367675782 1.3966874999999996 L 4.245039367675782 1.3729374999999995 L 4.245039367675782 1.3629374999999995 L 4.400664367675781 1.3629374999999995 L 4.400664367675781 1.3729374999999995 L 4.351289367675781 1.3973124999999995 L 4.351289367675781 1.7785624999999996 L 4.3281643676757815 1.7785624999999996 L 4.070039367675781 1.4529374999999995 L 4.070039367675781 1.7410624999999995 L 4.132539367675781 1.7654374999999995 L 4.132539367675781 1.7754374999999996 L 3.9762893676757813 1.7754374999999996 M 4.472540283203125 1.7754374999999996 L 4.472540283203125 1.7654374999999995 L 4.522540283203125 1.7404374999999996 L 4.522540283203125 1.3979374999999996 L 4.472540283203125 1.3729374999999995 L 4.472540283203125 1.3629374999999995 L 4.655665283203125 1.3629374999999995 Q 4.724415283203125 1.3629374999999995 4.773165283203125 1.3873124999999995 Q 4.821915283203125 1.4116874999999995 4.847227783203125 1.4541874999999995 Q 4.872540283203125 1.4966874999999995 4.872540283203125 1.5504374999999995 Q 4.872540283203125 1.5991874999999995 4.855977783203125 1.6404374999999995 Q 4.839415283203125 1.6816874999999996 4.809415283203125 1.7116874999999996 Q 4.779415283203125 1.7416874999999996 4.739102783203125 1.7585624999999996 Q 4.698790283203125 1.7754374999999996 4.651290283203125 1.7754374999999996 L 4.472540283203125 1.7754374999999996 M 4.641290283203125 1.3973124999999995 L 4.578790283203125 1.3973124999999995 L 4.578790283203125 1.7410624999999995 L 4.650665283203125 1.7410624999999995 Q 4.700665283203125 1.7410624999999995 4.737227783203125 1.7201249999999995 Q 4.773790283203125 1.6991874999999996 4.793477783203125 1.6607499999999995 Q 4.813165283203125 1.6223124999999996 4.813165283203125 1.5698124999999996 Q 4.813165283203125 1.5179374999999995 4.793165283203125 1.4788749999999995 Q 4.773165283203125 1.4398124999999995 4.734727783203125 1.4185624999999995 Q 4.696290283203125 1.3973124999999995 4.641290283203125 1.3973124999999995 M 5.205055541992188 1.7816874999999996 Q 5.151305541992188 1.7816874999999996 5.118180541992188 1.7519999999999996 Q 5.085055541992188 1.7223124999999995 5.085055541992188 1.6735624999999996 Q 5.085055541992188 1.6441874999999995 5.105368041992188 1.6144999999999996 Q 5.125680541992187 1.5848124999999995 5.172555541992187 1.5535624999999995 Q 5.149430541992188 1.5291874999999995 5.138493041992188 1.5132499999999995 Q 5.127555541992187 1.4973124999999996 5.124118041992188 1.4841874999999995 Q 5.120680541992187 1.4710624999999995 5.120680541992187 1.4541874999999995 Q 5.120680541992187 1.4323124999999997 5.134743041992188 1.4098124999999995 Q 5.148805541992187 1.3873124999999995 5.174430541992187 1.3719999999999994 Q 5.200055541992188 1.3566874999999996 5.233805541992187 1.3566874999999996 Q 5.2825555419921875 1.3566874999999996 5.309430541992188 1.3791874999999996 Q 5.336305541992187 1.4016874999999995 5.336305541992187 1.4366874999999997 Q 5.336305541992187 1.4654374999999995 5.309430541992188 1.4879374999999995 Q 5.2825555419921875 1.5104374999999997 5.236305541992188 1.5385624999999996 Q 5.241305541992188 1.5435624999999995 5.246305541992188 1.5485624999999996 Q 5.2513055419921875 1.5535624999999995 5.256930541992188 1.5591874999999995 L 5.356930541992187 1.6591874999999996 Q 5.375055541992188 1.6316874999999995 5.390368041992187 1.5963749999999997 Q 5.405680541992187 1.5610624999999996 5.419430541992187 1.5185624999999996 L 5.358180541992187 1.4941874999999996 L 5.358180541992187 1.4841874999999995 L 5.506930541992188 1.4841874999999995 L 5.506930541992188 1.4941874999999996 L 5.453805541992187 1.5173124999999996 Q 5.433805541992188 1.5635624999999995 5.414118041992188 1.6032499999999996 Q 5.394430541992188 1.6429374999999995 5.373180541992188 1.6754374999999995 L 5.441305541992188 1.7429374999999996 L 5.493180541992188 1.7654374999999995 L 5.493180541992188 1.7754374999999996 L 5.392555541992188 1.7754374999999996 L 5.337555541992187 1.7204374999999996 Q 5.310680541992188 1.7498124999999995 5.278180541992188 1.7657499999999995 Q 5.245680541992187 1.7816874999999996 5.205055541992188 1.7816874999999996 M 5.1750555419921875 1.4416874999999996 Q 5.1750555419921875 1.4623124999999995 5.185680541992188 1.4801249999999995 Q 5.196305541992188 1.4979374999999995 5.221305541992187 1.5235624999999995 Q 5.250680541992187 1.5023124999999995 5.2669305419921875 1.4835624999999997 Q 5.283180541992188 1.4648124999999996 5.283180541992188 1.4391874999999996 Q 5.283180541992188 1.4141874999999995 5.2678680419921875 1.3994999999999995 Q 5.252555541992187 1.3848124999999996 5.229430541992188 1.3848124999999996 Q 5.206930541992188 1.3848124999999996 5.190993041992187 1.3998124999999995 Q 5.1750555419921875 1.4148124999999996 5.1750555419921875 1.4416874999999996 M 5.142555541992188 1.6585624999999995 Q 5.142555541992188 1.6848124999999996 5.154430541992188 1.7032499999999995 Q 5.1663055419921875 1.7216874999999996 5.186305541992187 1.7313749999999997 Q 5.2063055419921875 1.7410624999999995 5.229430541992188 1.7410624999999995 Q 5.280055541992187 1.7410624999999995 5.320680541992187 1.7035624999999996 L 5.229430541992188 1.6123124999999996 Q 5.216930541992188 1.5998124999999996 5.2063055419921875 1.5891874999999995 Q 5.195680541992187 1.5785624999999996 5.186930541992187 1.5691874999999995 Q 5.166930541992188 1.5848124999999995 5.1575555419921875 1.5979374999999996 Q 5.148180541992187 1.6110624999999996 5.145368041992188 1.6254374999999996 Q 5.142555541992188 1.6398124999999997 5.142555541992188 1.6585624999999995 M 5.703810119628907 1.7754374999999996 L 5.703810119628907 1.7654374999999995 L 5.753810119628906 1.7404374999999996 L 5.753810119628906 1.3979374999999996 L 5.703810119628907 1.3729374999999995 L 5.703810119628907 1.3629374999999995 L 5.866310119628906 1.3629374999999995 L 5.866310119628906 1.3729374999999995 L 5.810060119628906 1.3979374999999996 L 5.810060119628906 1.7410624999999995 L 5.961935119628906 1.7410624999999995 L 6.004435119628906 1.6366874999999996 L 6.0144351196289065 1.6366874999999996 L 6.0144351196289065 1.7754374999999996 L 5.703810119628907 1.7754374999999996 M 6.09569091796875 1.7754374999999996 L 6.09569091796875 1.7654374999999995 L 6.14569091796875 1.7404374999999996 L 6.14569091796875 1.3979374999999996 L 6.09569091796875 1.3729374999999995 L 6.09569091796875 1.3629374999999995 L 6.25194091796875 1.3629374999999995 L 6.25194091796875 1.3729374999999995 L 6.20194091796875 1.3979374999999996 L 6.20194091796875 1.7404374999999996 L 6.25194091796875 1.7654374999999995 L 6.25194091796875 1.7754374999999996 L 6.09569091796875 1.7754374999999996 M 6.4607000732421875 1.7816874999999996 Q 6.421950073242187 1.7816874999999996 6.395075073242188 1.7744999999999995 Q 6.368200073242187 1.7673124999999996 6.339450073242188 1.7529374999999996 L 6.333200073242187 1.6504374999999996 L 6.343200073242188 1.6504374999999996 L 6.3738250732421875 1.7166874999999995 Q 6.3963250732421875 1.7354374999999995 6.417575073242188 1.7438749999999996 Q 6.438825073242188 1.7523124999999995 6.4607000732421875 1.7523124999999995 Q 6.497575073242188 1.7523124999999995 6.518512573242187 1.7329374999999996 Q 6.539450073242188 1.7135624999999997 6.539450073242188 1.6804374999999996 Q 6.539450073242188 1.6529374999999995 6.527262573242187 1.6373124999999995 Q 6.515075073242188 1.6216874999999995 6.492262573242187 1.6094999999999995 Q 6.469450073242188 1.5973124999999995 6.438200073242188 1.5816874999999995 Q 6.408825073242188 1.5666874999999996 6.388200073242188 1.5523124999999995 Q 6.367575073242188 1.5379374999999995 6.356950073242188 1.5188749999999995 Q 6.346325073242188 1.4998124999999995 6.346325073242188 1.4710624999999995 Q 6.346325073242188 1.4498124999999995 6.356637573242187 1.4294999999999995 Q 6.3669500732421875 1.4091874999999996 6.384762573242187 1.3926249999999996 Q 6.402575073242187 1.3760624999999995 6.424762573242187 1.3663749999999997 Q 6.446950073242188 1.3566874999999996 6.470700073242187 1.3566874999999996 Q 6.499450073242188 1.3566874999999996 6.523825073242188 1.3635624999999996 Q 6.548200073242188 1.3704374999999995 6.573825073242188 1.3829374999999995 L 6.580075073242187 1.4829374999999996 L 6.5700750732421875 1.4829374999999996 L 6.541325073242188 1.4173124999999995 Q 6.519450073242187 1.4010624999999997 6.503200073242187 1.3938749999999995 Q 6.486950073242188 1.3866874999999996 6.465700073242187 1.3866874999999996 Q 6.438200073242188 1.3866874999999996 6.420387573242188 1.4054374999999997 Q 6.402575073242187 1.4241874999999995 6.402575073242187 1.4516874999999996 Q 6.402575073242187 1.4835624999999997 6.421950073242187 1.5013749999999995 Q 6.441325073242187 1.5191874999999997 6.482575073242187 1.5391874999999995 Q 6.520700073242187 1.5579374999999995 6.545075073242187 1.5738749999999995 Q 6.569450073242187 1.5898124999999996 6.581325073242187 1.6104374999999995 Q 6.593200073242188 1.6310624999999996 6.593200073242188 1.6629374999999995 Q 6.593200073242188 1.6923124999999994 6.580700073242188 1.7144999999999995 Q 6.5682000732421875 1.7366874999999995 6.548512573242188 1.7516874999999996 Q 6.528825073242188 1.7666874999999995 6.505387573242188 1.7741874999999996 Q 6.481950073242188 1.7816874999999996 6.4607000732421875 1.7816874999999996 M 6.747578735351563 1.7754374999999996 L 6.747578735351563 1.7654374999999995 L 6.810078735351563 1.7404374999999996 L 6.810078735351563 1.3973124999999995 L 6.708203735351563 1.3973124999999995 L 6.6657037353515625 1.4891874999999994 L 6.655703735351563 1.4891874999999994 L 6.655703735351563 1.3629374999999995 L 7.020703735351563 1.3629374999999995 L 7.020703735351563 1.4891874999999994 L 7.010703735351562 1.4891874999999994 L 6.968203735351563 1.3973124999999995 L 6.866328735351562 1.3973124999999995 L 6.866328735351562 1.7404374999999996 L 6.928828735351562 1.7654374999999995 L 6.928828735351562 1.7754374999999996 L 6.747578735351563 1.7754374999999996 M 7.089460754394532 1.7754374999999996 L 7.089460754394532 1.7654374999999995 L 7.139460754394531 1.7404374999999996 L 7.139460754394531 1.3979374999999996 L 7.089460754394532 1.3729374999999995 L 7.089460754394532 1.3629374999999995 L 7.395085754394532 1.3629374999999995 L 7.395085754394532 1.4704374999999996 L 7.385085754394531 1.4704374999999996 L 7.346335754394532 1.3973124999999995 L 7.195710754394531 1.3973124999999995 L 7.195710754394531 1.5454374999999996 L 7.301960754394531 1.5454374999999996 L 7.333210754394531 1.4935624999999995 L 7.343210754394531 1.4935624999999995 L 7.343210754394531 1.6304374999999995 L 7.333210754394531 1.6304374999999995 L 7.301960754394531 1.5798124999999996 L 7.195710754394531 1.5798124999999996 L 7.195710754394531 1.7410624999999995 L 7.363835754394532 1.7410624999999995 L 7.402585754394531 1.6616874999999995 L 7.412585754394531 1.6616874999999995 L 7.412585754394531 1.7754374999999996 L 7.089460754394532 1.7754374999999996 M 7.493821716308593 1.7754374999999996 L 7.493821716308593 1.7654374999999995 L 7.543821716308594 1.7404374999999996 L 7.543821716308594 1.3991874999999996 L 7.494446716308594 1.3729374999999995 L 7.494446716308594 1.3629374999999995 L 7.586321716308594 1.3629374999999995 L 7.825071716308594 1.6629374999999995 L 7.825071716308594 1.3966874999999996 L 7.762571716308594 1.3729374999999995 L 7.762571716308594 1.3629374999999995 L 7.918196716308594 1.3629374999999995 L 7.918196716308594 1.3729374999999995 L 7.868821716308593 1.3973124999999995 L 7.868821716308593 1.7785624999999996 L 7.845696716308594 1.7785624999999996 L 7.587571716308593 1.4529374999999995 L 7.587571716308593 1.7410624999999995 L 7.650071716308593 1.7654374999999995 L 7.650071716308593 1.7754374999999996 L 7.493821716308593 1.7754374999999996 M 7.993197631835938 1.7754374999999996 L 7.993197631835938 1.7654374999999995 L 8.043197631835938 1.7404374999999996 L 8.043197631835938 1.3979374999999996 L 7.993197631835938 1.3729374999999995 L 7.993197631835938 1.3629374999999995 L 8.149447631835937 1.3629374999999995 L 8.149447631835937 1.3729374999999995 L 8.099447631835938 1.3979374999999996 L 8.099447631835938 1.7404374999999996 L 8.149447631835937 1.7654374999999995 L 8.149447631835937 1.7754374999999996 L 7.993197631835938 1.7754374999999996 M 8.230706787109375 1.7754374999999996 L 8.230706787109375 1.7654374999999995 L 8.280706787109375 1.7404374999999996 L 8.280706787109375 1.3991874999999996 L 8.231331787109376 1.3729374999999995 L 8.231331787109376 1.3629374999999995 L 8.323206787109376 1.3629374999999995 L 8.561956787109375 1.6629374999999995 L 8.561956787109375 1.3966874999999996 L 8.499456787109375 1.3729374999999995 L 8.499456787109375 1.3629374999999995 L 8.655081787109374 1.3629374999999995 L 8.655081787109374 1.3729374999999995 L 8.605706787109375 1.3973124999999995 L 8.605706787109375 1.7785624999999996 L 8.582581787109374 1.7785624999999996 L 8.324456787109375 1.4529374999999995 L 8.324456787109375 1.7410624999999995 L 8.386956787109375 1.7654374999999995 L 8.386956787109375 1.7754374999999996 L 8.230706787109375 1.7754374999999996 M 8.944463806152344 1.7816874999999996 Q 8.884463806152343 1.7816874999999996 8.837276306152344 1.7554374999999995 Q 8.790088806152344 1.7291874999999997 8.763213806152343 1.6838749999999996 Q 8.736338806152343 1.6385624999999995 8.736338806152343 1.5804374999999995 Q 8.736338806152343 1.5323124999999995 8.753526306152343 1.4916874999999996 Q 8.770713806152344 1.4510624999999995 8.801651306152344 1.4207499999999995 Q 8.832588806152344 1.3904374999999995 8.872588806152343 1.3735624999999996 Q 8.912588806152344 1.3566874999999996 8.958838806152343 1.3566874999999996 Q 8.991338806152344 1.3566874999999996 9.014463806152344 1.3604374999999995 Q 9.037588806152344 1.3641874999999994 9.055713806152344 1.3710624999999996 Q 9.073838806152343 1.3779374999999996 9.091963806152343 1.3866874999999996 L 9.095088806152344 1.4898124999999995 L 9.085088806152344 1.4898124999999995 L 9.044463806152343 1.4198124999999995 Q 9.018213806152344 1.4016874999999995 8.999776306152343 1.3948124999999996 Q 8.981338806152344 1.3879374999999996 8.957588806152344 1.3879374999999996 Q 8.909463806152344 1.3879374999999996 8.871963806152344 1.4088749999999997 Q 8.834463806152344 1.4298124999999995 8.813213806152344 1.4663749999999995 Q 8.791963806152344 1.5029374999999996 8.791963806152344 1.5491874999999995 Q 8.791963806152344 1.6116874999999995 8.814776306152345 1.6554374999999997 Q 8.837588806152343 1.6991874999999996 8.876338806152344 1.7223124999999995 Q 8.915088806152344 1.7454374999999995 8.962588806152343 1.7454374999999995 Q 8.983213806152344 1.7454374999999995 9.002276306152345 1.7429374999999996 Q 9.021338806152343 1.7404374999999996 9.041963806152344 1.7323124999999995 L 9.041963806152344 1.6291874999999996 L 8.986338806152343 1.6041874999999997 L 8.986338806152343 1.5941874999999996 L 9.141338806152344 1.5941874999999996 L 9.141338806152344 1.6041874999999997 L 9.098213806152344 1.6310624999999996 L 9.098213806152344 1.7291874999999997 Q 9.069463806152344 1.7529374999999996 9.027276306152343 1.7673124999999996 Q 8.985088806152344 1.7816874999999996 8.944463806152344 1.7816874999999996 M 9.369467163085938 1.7754374999999996 L 9.369467163085938 1.7654374999999995 L 9.419467163085937 1.7404374999999996 L 9.419467163085937 1.3979374999999996 L 9.369467163085938 1.3729374999999995 L 9.369467163085938 1.3629374999999995 L 9.675092163085937 1.3629374999999995 L 9.675092163085937 1.4704374999999996 L 9.665092163085937 1.4704374999999996 L 9.626342163085937 1.3973124999999995 L 9.475717163085937 1.3973124999999995 L 9.475717163085937 1.5454374999999996 L 9.581967163085938 1.5454374999999996 L 9.613217163085938 1.4935624999999995 L 9.623217163085938 1.4935624999999995 L 9.623217163085938 1.6304374999999995 L 9.613217163085938 1.6304374999999995 L 9.581967163085938 1.5798124999999996 L 9.475717163085937 1.5798124999999996 L 9.475717163085937 1.7410624999999995 L 9.643842163085937 1.7410624999999995 L 9.682592163085937 1.6616874999999995 L 9.692592163085937 1.6616874999999995 L 9.692592163085937 1.7754374999999996 L 9.369467163085938 1.7754374999999996 M 9.756953125 1.7754374999999996 L 9.756953125 1.7654374999999995 L 9.796953125 1.7448124999999997 L 9.956953125 1.3598124999999994 L 9.985078125 1.3598124999999994 L 10.142578125 1.7429374999999996 L 10.184453125 1.7654374999999995 L 10.184453125 1.7754374999999996 L 10.029453125 1.7754374999999996 L 10.029453125 1.7654374999999995 L 10.084453125 1.7441874999999996 L 10.037578125 1.6285624999999995 L 9.885703125 1.6285624999999995 L 9.839453125 1.7441874999999996 L 9.891953125 1.7654374999999995 L 9.891953125 1.7754374999999996 L 9.756953125 1.7754374999999996 M 9.900078125 1.5941874999999996 L 10.023828125 1.5941874999999996 L 9.961953125 1.4404374999999996 L 9.900078125 1.5941874999999996 M 10.245703125 1.7754374999999996 L 10.245703125 1.7654374999999995 L 10.295703125 1.7404374999999996 L 10.295703125 1.3979374999999996 L 10.245703125 1.3729374999999995 L 10.245703125 1.3629374999999995 L 10.406953125 1.3629374999999995 Q 10.472578125 1.3629374999999995 10.510390625 1.3901249999999996 Q 10.548203125 1.4173124999999995 10.548203125 1.4648124999999996 Q 10.548203125 1.4998124999999995 10.524453125 1.5276249999999996 Q 10.500703125 1.5554374999999996 10.461328125 1.5698124999999996 L 10.580078125 1.7429374999999996 L 10.621328125 1.7654374999999995 L 10.621328125 1.7754374999999996 L 10.531328125 1.7754374999999996 L 10.410078125 1.5860624999999995 L 10.351953125 1.5860624999999995 L 10.351953125 1.7398124999999995 L 10.398828125 1.7654374999999995 L 10.398828125 1.7754374999999996 L 10.245703125 1.7754374999999996 M 10.392578125 1.3973124999999995 L 10.351953125 1.3973124999999995 L 10.351953125 1.5516874999999994 L 10.396328125 1.5516874999999994 Q 10.435703125 1.5516874999999994 10.461640625 1.5294999999999996 Q 10.487578125 1.5073124999999996 10.487578125 1.4729374999999996 Q 10.487578125 1.4379374999999994 10.461953125 1.4176249999999995 Q 10.436328125 1.3973124999999995 10.392578125 1.3973124999999995" fill="#803500" fill-rule="nonzero"></path></g></g><defs><clipPath id="SvgjsClipPath164823"><path d=" M 0 -8.923412795443797 h 9.961635397678261 v 8.673412795443797 h -9.961635397678261 Z"></path></clipPath><clipPath id="SvgjsClipPath1648187e233ffe-4991-4ce6-b8c8-e840b82c343a"><path d=" M 0 -8.923412795443797 L 9.961635397678261 -8.923412795443797 L 9.961635397678261 -0.24999999999999822 L 0 -0.24999999999999822 Z"></path></clipPath></defs></svg>